<svg width="157" height="162" viewBox="0 0 157 162" fill="none" xmlns="http://www.w3.org/2000/svg">
<path d="M68.3973 89.3709C68.3973 85.6824 65.4072 82.6923 61.7187 82.6923C58.0301 82.6923 55.04 85.6824 55.04 89.3709V122.764C55.04 126.453 58.0301 129.443 61.7187 129.443C65.4072 129.443 68.3973 126.453 68.3973 122.764V89.3709Z" fill="#FF5E00" fill-opacity="0.2"/>
<path d="M95.2009 82.6923C98.8894 82.6923 101.88 85.6824 101.88 89.3709V122.764C101.88 126.453 98.8894 129.443 95.2009 129.443C91.5124 129.443 88.5223 126.453 88.5223 122.764V89.3709C88.5223 85.6824 91.5124 82.6923 95.2009 82.6923Z" fill="#FF5E00" fill-opacity="0.2"/>
<path fill-rule="evenodd" clip-rule="evenodd" d="M104.854 8.6392C102.808 5.57017 98.6613 4.74086 95.5923 6.78688C92.5232 8.8329 91.6939 12.9795 93.7399 16.0485L103.499 30.6878H53.4202L63.1797 16.0485C65.2257 12.9795 64.3964 8.8329 61.3274 6.78688C58.2583 4.74086 54.1118 5.57017 52.0658 8.6392L37.3667 30.6878H30.3713C26.6812 30.6889 23.0357 31.4947 19.6889 33.049C16.3421 34.6033 13.3745 36.8688 10.993 39.6875C8.61145 42.5063 6.87325 45.8104 5.89951 49.3698C4.9268 52.9253 4.74034 56.6501 5.35303 60.285L5.35497 60.2964L17.8182 135.521C17.8264 135.571 17.8352 135.62 17.8445 135.67C18.9452 141.493 22.0493 146.748 26.6186 150.523C31.1854 154.295 36.9278 156.352 42.851 156.335H114.068C119.991 156.352 125.734 154.295 130.301 150.523C134.87 146.748 137.974 141.493 139.075 135.67C139.084 135.622 139.092 135.575 139.1 135.527L151.553 60.8073C152.248 57.1541 152.131 53.3924 151.211 49.7885C150.283 46.1539 148.561 42.7702 146.169 39.8809C143.777 36.9916 140.773 34.6686 137.376 33.079C133.982 31.4914 130.28 30.6748 126.533 30.6878H119.553L104.854 8.6392ZM114.95 44.0451C115.669 44.1639 116.408 44.1659 117.136 44.0451H126.546L126.573 44.045C128.35 44.0379 130.106 44.4247 131.715 45.1777C133.325 45.9306 134.747 47.031 135.881 48.3996C137.014 49.7683 137.83 51.3711 138.269 53.0927C138.709 54.8144 138.761 56.612 138.423 58.3564C138.411 58.4143 138.401 58.4724 138.391 58.5306L138.357 58.7382H18.6361L18.529 58.0917L18.5254 58.0702C18.2341 56.3467 18.3221 54.5804 18.7834 52.8944C19.2446 51.2084 20.068 49.6433 21.1961 48.3081C22.3242 46.9729 23.7299 45.8998 25.3152 45.1635C26.8999 44.4276 28.626 44.0459 30.3733 44.0451H39.7837C40.5119 44.1659 41.2507 44.1639 41.9695 44.0451H114.95ZM20.8492 72.0955L30.9822 133.255C31.5144 135.987 32.9785 138.451 35.1256 140.225C37.29 142.013 40.0119 142.987 42.8193 142.978L42.8401 142.978H114.079L114.1 142.978C116.907 142.987 119.629 142.013 121.794 140.225C123.941 138.451 125.406 135.986 125.938 133.253L136.13 72.0955H20.8492Z" fill="#FF5E00" fill-opacity="0.2"/>
<path d="M68.3973 89.3709C68.3973 85.6824 65.4072 82.6923 61.7187 82.6923C58.0301 82.6923 55.04 85.6824 55.04 89.3709V122.764C55.04 126.453 58.0301 129.443 61.7187 129.443C65.4072 129.443 68.3973 126.453 68.3973 122.764V89.3709Z" stroke="#FF5E00" stroke-opacity="0.05" stroke-width="10" stroke-linecap="round" stroke-linejoin="round"/>
<path d="M95.2009 82.6923C98.8894 82.6923 101.88 85.6824 101.88 89.3709V122.764C101.88 126.453 98.8894 129.443 95.2009 129.443C91.5124 129.443 88.5223 126.453 88.5223 122.764V89.3709C88.5223 85.6824 91.5124 82.6923 95.2009 82.6923Z" stroke="#FF5E00" stroke-opacity="0.05" stroke-width="10" stroke-linecap="round" stroke-linejoin="round"/>
<path fill-rule="evenodd" clip-rule="evenodd" d="M104.854 8.6392C102.808 5.57017 98.6613 4.74086 95.5923 6.78688C92.5232 8.8329 91.6939 12.9795 93.7399 16.0485L103.499 30.6878H53.4202L63.1797 16.0485C65.2257 12.9795 64.3964 8.8329 61.3274 6.78688C58.2583 4.74086 54.1118 5.57017 52.0658 8.6392L37.3667 30.6878H30.3713C26.6812 30.6889 23.0357 31.4947 19.6889 33.049C16.3421 34.6033 13.3745 36.8688 10.993 39.6875C8.61145 42.5063 6.87325 45.8104 5.89951 49.3698C4.9268 52.9253 4.74034 56.6501 5.35303 60.285L5.35497 60.2964L17.8182 135.521C17.8264 135.571 17.8352 135.62 17.8445 135.67C18.9452 141.493 22.0493 146.748 26.6186 150.523C31.1854 154.295 36.9278 156.352 42.851 156.335H114.068C119.991 156.352 125.734 154.295 130.301 150.523C134.87 146.748 137.974 141.493 139.075 135.67C139.084 135.622 139.092 135.575 139.1 135.527L151.553 60.8073C152.248 57.1541 152.131 53.3924 151.211 49.7885C150.283 46.1539 148.561 42.7702 146.169 39.8809C143.777 36.9916 140.773 34.6686 137.376 33.079C133.982 31.4914 130.28 30.6748 126.533 30.6878H119.553L104.854 8.6392ZM114.95 44.0451C115.669 44.1639 116.408 44.1659 117.136 44.0451H126.546L126.573 44.045C128.35 44.0379 130.106 44.4247 131.715 45.1777C133.325 45.9306 134.747 47.031 135.881 48.3996C137.014 49.7683 137.83 51.3711 138.269 53.0927C138.709 54.8144 138.761 56.612 138.423 58.3564C138.411 58.4143 138.401 58.4724 138.391 58.5306L138.357 58.7382H18.6361L18.529 58.0917L18.5254 58.0702C18.2341 56.3467 18.3221 54.5804 18.7834 52.8944C19.2446 51.2084 20.068 49.6433 21.1961 48.3081C22.3242 46.9729 23.7299 45.8998 25.3152 45.1635C26.8999 44.4276 28.626 44.0459 30.3733 44.0451H39.7837C40.5119 44.1659 41.2507 44.1639 41.9695 44.0451H114.95ZM20.8492 72.0955L30.9822 133.255C31.5144 135.987 32.9785 138.451 35.1256 140.225C37.29 142.013 40.0119 142.987 42.8193 142.978L42.8401 142.978H114.079L114.1 142.978C116.907 142.987 119.629 142.013 121.794 140.225C123.941 138.451 125.406 135.986 125.938 133.253L136.13 72.0955H20.8492Z" stroke="#FF5E00" stroke-opacity="0.05" stroke-width="10" stroke-linecap="round" stroke-linejoin="round"/>
</svg>
