<svg width="24" height="24" viewBox="0 0 24 24" fill="none" xmlns="http://www.w3.org/2000/svg">
<path d="M4.53001 9.54999L5.93001 18C6.02109 18.4819 6.27794 18.9167 6.65603 19.229C7.03412 19.5414 7.5096 19.7115 8.00001 19.71H16C16.4904 19.7115 16.9659 19.5414 17.344 19.229C17.7221 18.9167 17.9789 18.4819 18.07 18L19.47 9.59999C19.5291 9.29528 19.52 8.98125 19.4432 8.6805C19.3664 8.37975 19.2239 8.09976 19.026 7.86069C18.828 7.62161 18.5795 7.42939 18.2984 7.29785C18.0172 7.16632 17.7104 7.09874 17.4 7.09999H6.60001C6.29467 7.10008 5.99302 7.16676 5.71609 7.29538C5.43915 7.42399 5.1936 7.61145 4.99654 7.84469C4.79947 8.07793 4.65564 8.35133 4.57507 8.64585C4.4945 8.94037 4.47912 9.24892 4.53001 9.54999Z" stroke="#8E8E93" stroke-width="1.5" stroke-linecap="round" stroke-linejoin="round"/>
<path d="M10.12 12.94V16.69" stroke="#A9A9AC" stroke-width="1.5" stroke-linecap="round" stroke-linejoin="round"/>
<path d="M13.88 12.94V16.69" stroke="#A9A9AC" stroke-width="1.5" stroke-linecap="round" stroke-linejoin="round"/>
<path d="M4.64999 10.25H19.28" stroke="#8E8E93" stroke-width="1.5" stroke-linecap="round" stroke-linejoin="round"/>
<path d="M7.78 7.10998L9.66 4.28998" stroke="#8E8E93" stroke-width="1.5" stroke-linecap="round" stroke-linejoin="round"/>
<path d="M16.22 7.10998L14.34 4.28998" stroke="#8E8E93" stroke-width="1.5" stroke-linecap="round" stroke-linejoin="round"/>
</svg>
