<svg width="98" height="98" viewBox="0 0 98 98" fill="none" xmlns="http://www.w3.org/2000/svg">
<path d="M69.2457 12.2198H28.5129C19.5145 12.2198 12.2198 19.5145 12.2198 28.5129V69.2457C12.2198 78.2441 19.5145 85.5388 28.5129 85.5388H69.2457C78.2441 85.5388 85.5388 78.2441 85.5388 69.2457V28.5129C85.5388 19.5145 78.2441 12.2198 69.2457 12.2198Z" stroke="#ECECEC" stroke-width="6.10991" stroke-linecap="round" stroke-linejoin="round"/>
<path d="M12.2198 69.2457L26.8429 54.6226C28.3693 53.1053 30.434 52.2537 32.5862 52.2537C34.7384 52.2537 36.8032 53.1053 38.3295 54.6226L47.2093 63.5024C48.7356 65.0197 50.8004 65.8713 52.9526 65.8713C55.1048 65.8713 57.1695 65.0197 58.6959 63.5024L85.5388 36.6595" stroke="#ECECEC" stroke-width="6.10991" stroke-linecap="round" stroke-linejoin="round"/>
</svg>
