<svg width="136" height="136" viewBox="0 0 136 136" fill="none" xmlns="http://www.w3.org/2000/svg">
<path d="M102 58.99V96.3334C102 100.842 100.209 105.166 97.0208 108.354C93.8327 111.542 89.5087 113.333 85 113.333H51C46.4913 113.333 42.1673 111.542 38.9792 108.354C35.7911 105.166 34 100.842 34 96.3334V39.6667C34 35.158 35.7911 30.834 38.9792 27.6459C42.1673 24.4578 46.4913 22.6667 51 22.6667H65.6767C67.1633 22.6729 68.5879 23.2631 69.6433 24.31L100.357 55.0234C101.404 56.0788 101.994 57.5034 102 58.99Z" stroke="#FF9500" stroke-width="8.5" stroke-miterlimit="10" stroke-linecap="round"/>
<path d="M68 25.3866V51C68 52.5029 68.597 53.9442 69.6597 55.0069C70.7224 56.0696 72.1638 56.6666 73.6667 56.6666H99.28C99.5018 56.6635 99.7178 56.5954 99.9013 56.4706C100.085 56.3459 100.228 56.1701 100.312 55.9649C100.397 55.7598 100.419 55.5344 100.376 55.3166C100.334 55.0989 100.229 54.8984 100.073 54.74L69.9267 24.5933C69.7683 24.438 69.5677 24.3326 69.35 24.2902C69.1323 24.2477 68.9068 24.2701 68.7017 24.3546C68.4966 24.4391 68.3207 24.5819 68.196 24.7653C68.0713 24.9488 68.0031 25.1648 68 25.3866Z" stroke="#FF9500" stroke-width="8.5" stroke-linecap="round" stroke-linejoin="round"/>
<path d="M82.1667 96.3333H53.8333" stroke="#FF9500" stroke-width="8.5" stroke-linecap="round" stroke-linejoin="round"/>
<path d="M70.8333 79.3333H53.8333" stroke="#FF9500" stroke-width="8.5" stroke-linecap="round" stroke-linejoin="round"/>
</svg>
