<svg width="24" height="24" viewBox="0 0 24 24" fill="none" xmlns="http://www.w3.org/2000/svg">
<path d="M6.47 4.04999L5 5.53999C4.60332 5.93243 4.2884 6.39964 4.07348 6.91458C3.85856 7.42953 3.74789 7.98199 3.74789 8.53999C3.74789 9.09799 3.85856 9.65045 4.07348 10.1654C4.2884 10.6803 4.60332 11.1476 5 11.54L12.47 19C12.8624 19.3967 13.3296 19.7116 13.8446 19.9265C14.3595 20.1414 14.912 20.2521 15.47 20.2521C16.028 20.2521 16.5805 20.1414 17.0954 19.9265C17.6104 19.7116 18.0776 19.3967 18.47 19L20 17.53C20.1044 17.4318 20.1877 17.3133 20.2445 17.1817C20.3014 17.0501 20.3308 16.9083 20.3308 16.765C20.3308 16.6217 20.3014 16.4798 20.2445 16.3483C20.1877 16.2167 20.1044 16.0982 20 16L17.76 13.75C17.5599 13.5533 17.2906 13.4431 17.01 13.4431C16.7294 13.4431 16.4601 13.5533 16.26 13.75L15.51 14.5C15.3099 14.6966 15.0406 14.8068 14.76 14.8068C14.4794 14.8068 14.2101 14.6966 14.01 14.5L9.47 9.99999C9.27335 9.79989 9.16315 9.53055 9.16315 9.24999C9.16315 8.96943 9.27335 8.70009 9.47 8.49999L10.22 7.74999C10.4167 7.54989 10.5268 7.28055 10.5268 6.99999C10.5268 6.71943 10.4167 6.45009 10.22 6.24999L8 4.04999C7.90182 3.94556 7.78329 3.86233 7.65173 3.80544C7.52016 3.74856 7.37834 3.71921 7.235 3.71921C7.09166 3.71921 6.94984 3.74856 6.81827 3.80544C6.68671 3.86233 6.56818 3.94556 6.47 4.04999Z" stroke="#000D26" stroke-width="1.5" stroke-linecap="round" stroke-linejoin="round"/>
</svg>
