<svg width="24" height="24" viewBox="0 0 24 24" fill="none" xmlns="http://www.w3.org/2000/svg">
<path d="M4.09981 11.5964C8.39558 9.76196 11.2594 8.55247 12.6913 7.96814C16.7845 6.29959 17.6339 6.0098 18.1887 6.0001C18.3108 5.99806 18.5824 6.02763 18.7597 6.16824C18.907 6.28673 18.9485 6.44697 18.9692 6.55936C18.9876 6.67176 19.013 6.92792 18.9922 7.12789C18.7712 9.41191 17.8113 14.9545 17.3232 17.5127C17.1183 18.5952 16.7108 18.9581 16.3171 18.9936C15.4608 19.0707 14.8115 18.4393 13.9828 17.9068C12.6867 17.0733 11.9546 16.5547 10.6954 15.7415C9.24044 14.8017 10.1843 14.2851 11.013 13.441C11.2294 13.22 15.0003 9.85833 15.0717 9.55342C15.0809 9.51528 15.0901 9.37309 15.0026 9.29816C14.9175 9.223 14.7908 9.24873 14.6987 9.26904C14.5675 9.29793 12.4979 10.6404 8.48295 13.2961C7.89591 13.692 7.36414 13.8849 6.88529 13.8748C6.36041 13.8637 5.34754 13.5832 4.59475 13.3435C3.6739 13.0494 2.93948 12.8939 3.00394 12.3945C3.03617 12.1345 3.40227 11.8684 4.09981 11.5964Z" fill="black"/>
</svg>
