<svg width="24" height="24" viewBox="0 0 24 24" fill="none" xmlns="http://www.w3.org/2000/svg">
<path d="M6 6.94L6.75 18.06C6.75 18.5904 6.96071 19.0991 7.33579 19.4742C7.71086 19.8493 8.21957 20.06 8.75 20.06H15.25C15.7804 20.06 16.2891 19.8493 16.6642 19.4742C17.0393 19.0991 17.25 18.5904 17.25 18.06L18 6.94" stroke="#3C3C43" stroke-linecap="round" stroke-linejoin="round"/>
<path d="M13.5 12.56V17.06" stroke="#3C3C43" stroke-linecap="round" stroke-linejoin="round"/>
<path d="M10.5 12.56V17.06" stroke="#3C3C43" stroke-linecap="round" stroke-linejoin="round"/>
<path d="M5 6.94H19" stroke="#3C3C43" stroke-linecap="round" stroke-linejoin="round"/>
<path d="M14.5 6.94V4.94C14.5 4.67479 14.3946 4.42043 14.2071 4.2329C14.0196 4.04536 13.7652 3.94 13.5 3.94H10.5C10.2348 3.94 9.98043 4.04536 9.79289 4.2329C9.60536 4.42043 9.5 4.67479 9.5 4.94V6.94" stroke="#3C3C43" stroke-linecap="round" stroke-linejoin="round"/>
</svg>
