<svg width="24" height="24" viewBox="0 0 24 24" fill="none" xmlns="http://www.w3.org/2000/svg">
<path d="M4.52998 9.54999L5.92998 18C6.02106 18.4819 6.27791 18.9167 6.656 19.229C7.03409 19.5414 7.50957 19.7115 7.99998 19.71H16C16.4904 19.7115 16.9659 19.5414 17.344 19.229C17.7221 18.9167 17.9789 18.4819 18.07 18L19.47 9.59999C19.5291 9.29528 19.52 8.98125 19.4432 8.6805C19.3664 8.37975 19.2239 8.09976 19.0259 7.86069C18.828 7.62161 18.5795 7.42939 18.2983 7.29785C18.0172 7.16632 17.7104 7.09874 17.4 7.09999H6.59998C6.29464 7.10008 5.99299 7.16676 5.71606 7.29538C5.43912 7.42399 5.19357 7.61145 4.99651 7.84469C4.79944 8.07793 4.65561 8.35133 4.57504 8.64585C4.49447 8.94037 4.47909 9.24892 4.52998 9.54999Z" stroke="#FF9500" stroke-width="1.5" stroke-linecap="round" stroke-linejoin="round"/>
<path d="M10.12 12.94V16.69" stroke="#FDC475" stroke-width="1.5" stroke-linecap="round" stroke-linejoin="round"/>
<path d="M13.88 12.94V16.69" stroke="#FDC475" stroke-width="1.5" stroke-linecap="round" stroke-linejoin="round"/>
<path d="M4.65002 10.25H19.28" stroke="#FF9500" stroke-width="1.5" stroke-linecap="round" stroke-linejoin="round"/>
<path d="M7.78003 7.11001L9.66003 4.29001" stroke="#FF9500" stroke-width="1.5" stroke-linecap="round" stroke-linejoin="round"/>
<path d="M16.22 7.11001L14.34 4.29001" stroke="#FF9500" stroke-width="1.5" stroke-linecap="round" stroke-linejoin="round"/>
</svg>
